inDegrees=no
num_controls=7
num_derivatives=13
num_iterations=107
num_multipliers=7
num_parameters=0
num_slacks=7
num_states=26
objective=0.444781
objective_accelerations=0.058227
objective_balance=0.003554
objective_effort=0.023457
objective_height=0.353899
objective_ligament=0.005645
solver_duration=1695.341724
status=Solve_Succeeded
success=true
DataType=double
version=3
OpenSimVersion=4.5
endheader
time	/jointset/ground_pelvis/pelvis_tilt/value	/jointset/ground_pelvis/pelvis_tx/value	/jointset/ground_pelvis/pelvis_ty/value	/jointset/hip_l/hip_flexion_l/value	/jointset/hip_l/hip_adduction_l/value	/jointset/hip_l/hip_rotation_l/value	/jointset/back/lumbar_extension/value	/jointset/patellofemoral_l/patellar_flexion_l/value	/jointset/knee_l/knee_flexion_l/value	/jointset/knee_l/knee_adduction_l/value	/jointset/knee_l/knee_rotation_l/value	/jointset/ankle_l/ankle_angle_l/value	/jointset/subtalar_l/subtalar_angle_l/value	/jointset/ground_pelvis/pelvis_tilt/speed	/jointset/ground_pelvis/pelvis_tx/speed	/jointset/ground_pelvis/pelvis_ty/speed	/jointset/hip_l/hip_flexion_l/speed	/jointset/hip_l/hip_adduction_l/speed	/jointset/hip_l/hip_rotation_l/speed	/jointset/back/lumbar_extension/speed	/jointset/patellofemoral_l/patellar_flexion_l/speed	/jointset/knee_l/knee_flexion_l/speed	/jointset/knee_l/knee_adduction_l/speed	/jointset/knee_l/knee_rotation_l/speed	/jointset/ankle_l/ankle_angle_l/speed	/jointset/subtalar_l/subtalar_angle_l/speed	/forceset/tau_hip_flexion_l	/forceset/tau_hip_adduction_l	/forceset/tau_hip_rotation_l	/forceset/tau_knee_flexion_l	/forceset/tau_ankle_angle_l	/forceset/tau_subtalar_angle_l	/forceset/tau_lumbar_extension	lambda_cid13_p0	lambda_cid13_p1	lambda_cid13_p2	lambda_cid13_p3	lambda_cid13_p4	lambda_cid13_p5	lambda_cid14_p0	/jointset/ground_pelvis/pelvis_tilt/accel	/jointset/ground_pelvis/pelvis_tx/accel	/jointset/ground_pelvis/pelvis_ty/accel	/jointset/hip_l/hip_flexion_l/accel	/jointset/hip_l/hip_adduction_l/accel	/jointset/hip_l/hip_rotation_l/accel	/jointset/back/lumbar_extension/accel	/jointset/patellofemoral_l/patellar_flexion_l/accel	/jointset/knee_l/knee_flexion_l/accel	/jointset/knee_l/knee_adduction_l/accel	/jointset/knee_l/knee_rotation_l/accel	/jointset/ankle_l/ankle_angle_l/accel	/jointset/subtalar_l/subtalar_angle_l/accel	gamma_cid13_p0	gamma_cid13_p1	gamma_cid13_p2	gamma_cid13_p3	gamma_cid13_p4	gamma_cid13_p5	gamma_cid14_p0
0.5	-0.3496993630048374	-0.04205376834201826	0.7567860198919772	1.119710222053827	-0.4364574022174025	-0.2196318199449762	-0.2544686055866672	0.813867284672294	0.8138672846722906	-0.1258266103148159	-0.1581378800694402	0.1046997972824597	-0.0338903607710799	-0.7949829419705807	-0.2218023348475983	-0.5442468867610406	2.529664817093507	-0.2044797284026557	0.7482462491828322	-0.1145496857478069	2.005763589797212	2.005763589797212	0.1339703375205687	-0.09018875364472115	0.4447491263166846	-0.007209320316784631	-0.1736408501098354	0.02314745990734265	-0.01116608393937132	-0.2175558034568861	0.07043711385187636	0.0419444571409468	0.1702830866639679	-10.16256845887811	-19.42029580160962	6.167752618987229	-6.956263204665309	-521.9047549028738	-59.65737936213324	-24.81004115296397	0.825509765508453	0.6298751104329826	-0.466543695186771	-1.394500525035278	0.7533741285613196	-0.2967060515399966	1.104111222228159	-1.277191882878128	-1.277191882878128	0.1598024587975526	0.1252992810072241	-0.507727844309328	0.558116037958355	-5.623943503872901e-07	-4.348265243704369e-07	2.83473454634673e-06	1.497563491338922e-07	-6.446527717868491e-07	8.77202855785023e-08	-4.633146458476922e-07
0.51	-0.3576059238075978	-0.04424002584997716	0.7513214209422825	1.144932155284969	-0.4384657732462935	-0.2121624800737478	-0.2555601470684277	0.8338579520117954	0.8338579520117947	-0.1244836882660204	-0.1590326677466892	0.1091207056875145	-0.03393657794514185	-0.7862086162118698	-0.2154298671678878	-0.5485560853348515	2.514370151901158	-0.1971851191182835	0.7455711495907431	-0.1038027481689004	1.992102076095763	1.992102076095769	0.1345684988809894	-0.0887262850289955	0.4393598176690808	-0.002053114985466878	-0.1793354573490613	0.02383189727663742	-0.01122784749564814	-0.2201733565463303	0.0698589310264832	0.04234357615060846	0.1746196136360591	-10.55222932288796	-19.49998384730365	6.15141758129911	-6.860343431206879	-525.6048640144523	-59.30212041487363	-23.88503919766923	0.9214142194765719	0.6438594689058615	-0.395711873317987	-1.649783467407268	0.7185865912921515	-0.2609002417508001	1.053364391030718	-1.450709182453004	-1.450709182452117	0.003029521771207563	0.1636718896333585	-0.5654357700543901	0.4912514664651129	-5.510148602257402e-07	-3.257792685574268e-07	2.895296277190987e-06	1.765295796071769e-07	-6.240952120036592e-07	1.638441679472205e-07	-4.565757967720131e-07
0.52	-0.3654211373050864	-0.04636197330670581	0.7458172092198819	1.169990575073974	-0.4404009817297572	-0.2047214888641815	-0.2565455433013374	0.8537039886005472	0.8537039886005494	-0.1231361432941994	-0.1599114404902252	0.1134855403270796	-0.03393185732874127	-0.7767134809162048	-0.2089403246015467	-0.5521694413022524	2.496962128665908	-0.1898472193172322	0.7425765168503483	-0.09332063597764115	1.976837439647327	1.97683743964734	0.1348949221256856	-0.08698576690214498	0.433534373218738	0.002978237775716001	-0.1850300645882875	0.02451633464593218	-0.01128961105192505	-0.2227909096357744	0.06928074820109006	0.04274269516027013	0.1789561406081503	-10.94541069315499	-19.57995435560031	6.136155944572202	-6.798021841765136	-529.3863386168562	-59.00819892918958	-22.96148760520373	0.9696716728992592	0.6532900877590447	-0.3273751739048389	-1.817172133615362	0.7620322318971362	-0.3606126812019789	1.051146144698691	-1.597816432275323	-1.597816432275326	0.1054548356526828	0.1809091832321959	-0.594955004857085	0.5331455239313804	-5.375060763001822e-07	-1.989497313101517e-07	2.966804986613441e-06	2.105754166916931e-07	-6.059898117335132e-07	2.443413171344802e-07	-4.473096116671528e-07
0.53	-0.373138119492981	-0.04841854587326742	0.7402803633897672	1.19486481601997	-0.4422625563327302	-0.1973113433917847	-0.2574274448618074	0.873389438418867	0.8733894384188683	-0.1217870674492532	-0.1607709890028068	0.1177899476906602	-0.03387741602198945	-0.766581721823234	-0.2023644031411121	-0.5550794784841679	2.477556738445487	-0.1824629186420884	0.7394235502072155	-0.08311707593100839	1.959986994907366	1.959986994907374	0.1348505011533086	-0.08487140325402774	0.4272718471489131	0.007884008624460943	-0.1904989657433268	0.02498639370885078	-0.01129625343299152	-0.2255931051915934	0.06885715165251456	0.04294766374163514	0.1830664863926158	-11.2945859079447	-19.5775834662378	6.101223549973172	-6.648038262980401	-533.1354131021081	-58.61388906710133	-22.04107825558648	1.050039901332231	0.6612567022507866	-0.2549003508367939	-2.051706349101349	0.7269735597802992	-0.2973747828576496	0.9963509624495335	-1.768399372738192	-1.76839937273912	-0.06977475890428259	0.2351823258421674	-0.6531667184679708	0.4650609108392487	-5.222845749475393e-07	-1.044905594088351e-07	3.006712488598026e-06	2.368529828721241e-07	-5.861182439154275e-07	3.235096356021012e-07	-4.388641541425378e-07
0.54	-0.3807507617151785	-0.05040905651981167	0.7347180007157329	1.219535106287194	-0.4440502190140603	-0.189933674811217	-0.2582090328162503	0.8928984356142107	0.892898435614211	-0.120440512653075	-0.161607697404859	0.1220294767314579	-0.03377476339765155	-0.7558454877768136	-0.1957279405980725	-0.5572728100861578	2.456171992911229	-0.1750648349886528	0.7360811384845337	-0.0732579147722171	1.941546915052133	1.941546915052133	0.1343907123720762	-0.0824177447962833	0.4205587086621727	0.01262050129293381	-0.1959678668983661	0.02545645277176936	-0.0113028958140579	-0.2283953007474124	0.06843355510393906	0.04315263232300008	0.1871768321770813	-11.64725694279296	-19.57522295130735	6.067005509372043	-6.531738216419916	-536.9661984993071	-58.27974574471549	-21.12790991308866	1.090566663589174	0.6653983042800502	-0.1840340579196856	-2.213043196383066	0.7647888275554801	-0.3985016971118026	0.9822663671303987	-1.915743455330305	-1.915743455330308	0.022381273881606	0.2487681451576342	-0.6850774882406164	0.499289887876965	-5.051681521862069e-07	-4.584540874134531e-08	3.011656952566247e-06	2.545358663501627e-07	-5.642926183847274e-07	4.01207758379909e-07	-4.313267356428749e-07
0.55	-0.3882529358516373	-0.05233295545710534	0.7291373171639917	1.24398178519042	-0.4457636548247445	-0.1825913491906033	-0.2588940006612461	0.9122154577984176	0.9122154577984177	-0.1190994969228023	-0.1624188575624129	0.1261998722292814	-0.033625243921043	-0.7444658952475542	-0.189046279627469	-0.5587400224980346	2.432824282568704	-0.1676091741817897	0.7322325718879114	-0.06383145500577474	1.92162421313428	1.92162421313428	0.1338635616844528	-0.07983673901110631	0.4134681719781998	0.01728153428486558	-0.2013672392367045	0.02570383511298317	-0.01124845466865753	-0.2311397456342504	0.06788204815224504	0.0433101349135007	0.1911852516723398	-12.03779867959537	-19.54273826785532	6.024694669658344	-6.337674663457719	-540.7147778344117	-57.94424454476371	-20.22603088362573	1.18010190025806	0.6704379146441006	-0.1095936457619898	-2.446642759013621	0.7375398194581546	-0.4011111590158583	0.9084656645780114	-2.06544441517549	-2.065444415175461	-0.08251196123448405	0.2600062054933828	-0.728843409211812	0.4488806344609079	-4.812680901880636e-07	3.205217513223514e-08	2.990850397296663e-06	2.73305205515147e-07	-5.387350674433672e-07	4.696888350295562e-07	-4.162814167402547e-07
0.5600000000000001	-0.3956376247922709	-0.05418986020045426	0.7235456557255437	1.268184785429055	-0.4474022170049187	-0.1752921246395717	-0.2594875779319422	0.9313262707924135	0.9313262707924133	-0.1177622024436359	-0.1632047597800559	0.130297802030118	-0.03342923998859321	-0.7323484486117413	-0.1823291018091212	-0.5594683874275242	2.407436259993121	-0.1600901088866696	0.7274609245681453	-0.05497979991225804	1.900305077009917	1.900305077009917	0.1336464621508222	-0.07736615681410323	0.4060655692647791	0.02191739246118237	-0.2067666115750412	0.02595121745419696	-0.01119401352325724	-0.2338841905210893	0.06733054120055103	0.04346763750400134	0.1951936711675983	-12.4309261871166	-19.51031835907224	5.982987379651839	-6.181421804790752	-544.5330646531366	-57.66502396289687	-19.33760184667608	1.238137484899904	0.6725016738289438	-0.03626456144228152	-2.621105642994497	0.777469725206857	-0.5831178417413201	0.8673054325452703	-2.195030296632342	-2.19503029663234	0.08439150468015112	0.2266834275228524	-0.7474906941302113	0.4942549247539681	-4.492276611057478e-07	1.330526788531236e-07	2.939142618941714e-06	2.93378291504466e-07	-5.086992060092151e-07	5.271094563254112e-07	-3.922266173540861e-07
0.5700000000000001	-0.4028971275632144	-0.05597950774925613	0.7179504751538639	1.29212340192513	-0.4489652814863502	-0.1680442690798865	-0.259996304427647	0.950216892256466	0.950216892256463	-0.1164261958923402	-0.1639658412499371	0.1343201625213342	-0.03318702674978586	-0.7193788549412962	-0.1756024614029657	-0.5594352872507877	2.379888447912714	-0.152526892654413	0.7220356207899805	-0.0469587195574377	1.877580567721015	1.877580567721019	0.1335200763828631	-0.07482978046187193	0.39835256572142	0.02650075744634893	-0.2118788428268203	0.02609940270997834	-0.01106296578898935	-0.2367811617609002	0.0668915899632313	0.04337661915858267	0.1988990062363632	-12.7905013976606	-19.3665694338069	5.912939393632423	-5.901618749820851	-548.2446683610568	-57.2283467437869	-18.46430976813062	1.352291725039604	0.6724981528046515	0.04286491403851943	-2.881484849017959	0.7447330094540584	-0.5337405063642608	0.7405262876426029	-2.346882732981849	-2.346882732981282	-0.06626805633617577	0.2707538581844408	-0.7912572274635949	0.4363311436849602	-4.171595198635342e-07	2.062476423507373e-07	2.867138177557861e-06	3.044633708339383e-07	-4.736926962704262e-07	5.802903454995597e-07	-3.705216336620769e-07
